<mxfile host="app.diagrams.net" agent="Mozilla/5.0 (Windows NT 10.0; Win64; x64) AppleWebKit/537.36 (KHTML, like Gecko) Chrome/141.0.0.0 Safari/537.36 Edg/141.0.0.0" version="28.2.5">
  <diagram name="第 1 页" id="XZlzdUDvl1_yyOEcym8I">
    <mxGraphModel dx="1040" dy="667" grid="1" gridSize="10" guides="1" tooltips="1" connect="1" arrows="1" fold="1" page="1" pageScale="1" pageWidth="827" pageHeight="1169" math="0" shadow="0">
      <root>
        <mxCell id="0" />
        <mxCell id="1" parent="0" />
        <mxCell id="GNmpj_Lp60JvTgLnpVQz-1" value="&lt;font face=&quot;Times New Roman&quot;&gt;TaskGen Agent&lt;/font&gt;" style="text;html=1;align=center;verticalAlign=middle;whiteSpace=wrap;rounded=0;" vertex="1" parent="1">
          <mxGeometry x="10" y="210" width="200" height="30" as="geometry" />
        </mxCell>
        <mxCell id="GNmpj_Lp60JvTgLnpVQz-2" value="" style="shape=image;verticalLabelPosition=bottom;labelBackgroundColor=default;verticalAlign=top;aspect=fixed;imageAspect=0;editableCssRules=.*;image=data:image/svg+xml,PHN2ZyB4bWxuczp4bGluaz0iaHR0cDovL3d3dy53My5vcmcvMTk5OS94bGluayIgeG1sbnM9Imh0dHA6Ly93d3cudzMub3JnLzIwMDAvc3ZnIiBoZWlnaHQ9IjE5OS45NjIzNzc1NDgyMTc3NyIgd2lkdGg9IjI1My4yODg2OTgxOTY0MTExMyIgdmVyc2lvbj0iMS4xIiB2aWV3Qm94PSItOS45MTk4OTA0Mjk5MjEzNjNlLTEzIDAgMTI5Ni44MzgxMzQ3NjU2MjUgMTAyMy44MDczNzMwNDY4NzUiIGNsYXNzPSJpY29uIj48cGF0aCBmaWxsPSIjMDA5RkRGIiBkPSJNMTM5LjYxMDA5MiAzMTUuNjU4NDE3aDEwMTcuNjE3OTU3YTEzOS42MTAwOTIgMTM5LjYxMDA5MiAwIDAgMSAxMzkuNjEwMDkxIDEzOS42MTAwOTJ2MTA0LjcwNzU2OGExMzkuNjEwMDkyIDEzOS42MTAwOTIgMCAwIDEtMTM5LjYxMDA5MSAxMzkuNjEwMDkySDEzOS42MTAwOTJhMTM5LjYxMDA5MiAxMzkuNjEwMDkyIDAgMCAxLTEzOS42MTAwOTItMTM5LjYxMDA5MnYtMTA0LjcwNzU2OGExMzkuNjEwMDkyIDEzOS42MTAwOTIgMCAwIDEgMTM5LjYxMDA5Mi0xMzkuNjEwMDkyeiIvPjxwYXRoIGZpbGw9IiMwMDlGREYiIGQ9Ik03Ni43ODU1NSAwbTQ2NS4zNjY5NzIgMGwxOTUuNDU0MTI4IDBxNDY1LjM2Njk3MiAwIDQ2NS4zNjY5NzIgNDY1LjM2Njk3MmwwIDkzLjA3MzM5NHEwIDQ2NS4zNjY5NzItNDY1LjM2Njk3MiA0NjUuMzY2OTcybC0xOTUuNDU0MTI4IDBxLTQ2NS4zNjY5NzIgMC00NjUuMzY2OTcyLTQ2NS4zNjY5NzJsMC05My4wNzMzOTRxMC00NjUuMzY2OTcyIDQ2NS4zNjY5NzItNDY1LjM2Njk3MloiLz48cGF0aCBmaWxsPSIjMDAwMDAwIiBkPSJNMTk2LjI0NTI1MiAyOTguNjI1OTg2bTE1OC43ODMyMTEgMGw1NjkuNzQ4NzgzIDBxMTU4Ljc4MzIxMSAwIDE1OC43ODMyMTEgMTU4Ljc4MzIxMWwwLTAuMDQ2NTM3cTAgMTU4Ljc4MzIxMS0xNTguNzgzMjExIDE1OC43ODMyMTFsLTU2OS43NDg3ODMgMHEtMTU4Ljc4MzIxMSAwLTE1OC43ODMyMTEtMTU4Ljc4MzIxMWwwIDAuMDQ2NTM3cTAtMTU4Ljc4MzIxMSAxNTguNzgzMjExLTE1OC43ODMyMTFaIi8+PHBhdGggZmlsbD0iI0ZGRkZGRiIgZD0iTTM5Mi40NDM5NjcgMzc1LjQxMTUzNm00Mi42NzQxNTIgMGwtMC4wNDY1MzcgMHE0Mi42NzQxNTEgMCA0Mi42NzQxNTEgNDIuNjc0MTUybDAgNjEuNTY4MDVxMCA0Mi42NzQxNTEtNDIuNjc0MTUxIDQyLjY3NDE1MWwwLjA0NjUzNyAwcS00Mi42NzQxNTEgMC00Mi42NzQxNTItNDIuNjc0MTUxbDAtNjEuNTY4MDVxMC00Mi42NzQxNTEgNDIuNjc0MTUyLTQyLjY3NDE1MloiLz48cGF0aCBmaWxsPSIjRkZGRkZGIiBkPSJNNzg0LjkzNDQ3MSAzNzUuNDExNTM2bTQyLjY3NDE1MiAwbC0wLjA0NjUzNyAwcTQyLjY3NDE1MSAwIDQyLjY3NDE1MSA0Mi42NzQxNTJsMCA2MS41NjgwNXEwIDQyLjY3NDE1MS00Mi42NzQxNTEgNDIuNjc0MTUxbDAuMDQ2NTM3IDBxLTQyLjY3NDE1MSAwLTQyLjY3NDE1Mi00Mi42NzQxNTFsMC02MS41NjgwNXEwLTQyLjY3NDE1MSA0Mi42NzQxNTItNDIuNjc0MTUyWiIvPjxwYXRoIGZpbGw9IiMxQzIwMjIiIGQ9Ik01MjguOTgyNjM3IDczMy43NDQxMDVtMzQuMTExMzk5IDBsMTYyLjEzMzg1MyAwcTM0LjExMTM5OSAwIDM0LjExMTM5OSAzNC4xMTEzOTlsMCAwLjA0NjUzNnEwIDM0LjExMTM5OS0zNC4xMTEzOTkgMzQuMTExMzk5bC0xNjIuMTMzODUzIDBxLTM0LjExMTM5OSAwLTM0LjExMTM5OS0zNC4xMTEzOTlsMC0wLjA0NjUzNnEwLTM0LjExMTM5OSAzNC4xMTEzOTktMzQuMTExMzk5WiIvPjwvc3ZnPg==;" vertex="1" parent="1">
          <mxGeometry x="110" y="90" width="63.25" height="50" as="geometry" />
        </mxCell>
        <mxCell id="GNmpj_Lp60JvTgLnpVQz-3" value="&lt;font style=&quot;font-size: 16px;&quot; face=&quot;Times New Roman&quot;&gt;Plan Agent&lt;/font&gt;" style="text;html=1;align=center;verticalAlign=middle;whiteSpace=wrap;rounded=0;" vertex="1" parent="1">
          <mxGeometry x="96.63" y="150" width="90" height="30" as="geometry" />
        </mxCell>
        <mxCell id="GNmpj_Lp60JvTgLnpVQz-4" value="" style="rounded=1;whiteSpace=wrap;html=1;" vertex="1" parent="1">
          <mxGeometry x="89" y="360" width="650" height="120" as="geometry" />
        </mxCell>
        <mxCell id="GNmpj_Lp60JvTgLnpVQz-5" value="sub" style="rounded=1;whiteSpace=wrap;html=1;" vertex="1" parent="1">
          <mxGeometry x="220" y="40" width="90" height="20" as="geometry" />
        </mxCell>
        <mxCell id="GNmpj_Lp60JvTgLnpVQz-6" value="" style="shape=image;verticalLabelPosition=bottom;labelBackgroundColor=default;verticalAlign=top;aspect=fixed;imageAspect=0;editableCssRules=.*;image=data:image/svg+xml,PHN2ZyB4bWxuczp4bGluaz0iaHR0cDovL3d3dy53My5vcmcvMTk5OS94bGluayIgeG1sbnM9Imh0dHA6Ly93d3cudzMub3JnLzIwMDAvc3ZnIiBoZWlnaHQ9IjI1IiB3aWR0aD0iMTUwIiB2ZXJzaW9uPSIxLjEiIHZpZXdCb3g9IjEyOCA0NDggNzY4IDEyOCIgY2xhc3M9Imljb24iPjxwYXRoIG9wYWNpdHk9Ii42NSIgZmlsbD0iIzAwMDAwMCIgZD0iTTEyOCA1MTJhNjQgNjQgMCAxIDAgMTI4IDAgNjQgNjQgMCAwIDAtMTI4IDB6TTQ0OCA1MTJhNjQgNjQgMCAxIDAgMTI4IDAgNjQgNjQgMCAwIDAtMTI4IDB6TTc2OCA1MTJhNjQgNjQgMCAxIDAgMTI4IDAgNjQgNjQgMCAwIDAtMTI4IDB6Ii8+PC9zdmc+;" vertex="1" parent="1">
          <mxGeometry x="240" y="110" width="60" height="10" as="geometry" />
        </mxCell>
      </root>
    </mxGraphModel>
  </diagram>
</mxfile>
